<svg width="911" height="728" viewBox="0 0 911 728" fill="none" xmlns="http://www.w3.org/2000/svg">
<g id="undraw_Activity_tracker_re_2lvv 1">
<path id="Vector" d="M467.366 360.697C454.258 360.691 441.276 363.268 429.164 368.28C417.051 373.292 406.044 380.641 396.772 389.907C387.5 399.173 380.144 410.175 375.125 422.285C370.105 434.394 367.52 447.374 367.518 460.483C367.516 473.591 370.096 486.572 375.111 498.684C380.126 510.795 387.478 521.8 396.746 531.069C406.015 540.339 417.019 547.692 429.13 552.708C441.241 557.725 454.221 560.306 467.33 560.305H467.366C468.013 560.305 468.647 560.305 469.294 560.278C495.592 559.772 520.627 548.904 538.955 530.039C557.283 511.173 567.422 485.834 567.168 459.533C566.914 433.231 556.287 408.093 537.598 389.585C518.909 371.077 493.669 360.695 467.366 360.697V360.697ZM487.707 550.034C475.11 552.894 462.05 553.065 449.382 550.533C436.714 548.002 424.723 542.826 414.192 535.344C403.662 527.861 394.828 518.241 388.27 507.111C381.711 495.982 377.575 483.593 376.131 470.756C374.687 457.919 375.969 444.921 379.892 432.613C383.814 420.304 390.291 408.962 398.896 399.328C407.502 389.694 418.044 381.983 429.834 376.702C441.623 371.42 454.394 368.685 467.312 368.677H467.366C489.947 368.675 511.736 376.995 528.57 392.045C545.404 407.095 556.101 427.821 558.618 450.261C561.135 472.701 555.295 495.282 542.214 513.687C529.132 532.093 509.727 545.033 487.707 550.034V550.034Z" fill="#E6E6E6"/>
<path id="Vector_2" d="M467.366 560.805C442.613 560.805 418.733 551.651 400.322 535.106C381.91 518.56 370.267 495.791 367.632 471.178C364.996 446.565 371.555 421.847 386.046 401.779C400.538 381.71 421.938 367.709 446.13 362.468C446.725 362.341 447.34 362.333 447.938 362.444L448.146 362.484C449.15 362.679 450.056 363.214 450.711 363.999C451.366 364.784 451.73 365.771 451.742 366.793C451.754 367.815 451.413 368.81 450.776 369.61C450.139 370.41 449.246 370.966 448.247 371.184C426.194 375.912 406.671 388.633 393.437 406.897C380.203 425.16 374.196 447.675 376.572 470.103C378.947 492.532 389.538 513.288 406.304 528.374C423.07 543.46 444.826 551.809 467.38 551.812C468.262 551.803 469.119 551.799 469.99 551.774C470.961 551.734 471.916 552.037 472.686 552.629C473.456 553.222 473.993 554.067 474.202 555.016C474.432 555.933 474.33 556.902 473.915 557.751C473.499 558.6 472.796 559.274 471.93 559.654V559.655C471.343 559.924 470.753 560.189 470.16 560.448C469.661 560.669 469.122 560.788 468.576 560.799C468.174 560.805 467.773 560.805 467.366 560.805Z" fill="#6C63FF"/>
<path id="Vector_3" d="M516.603 456.258C513.944 456.124 511.314 456.865 509.115 458.366C506.916 459.867 505.269 462.046 504.424 464.57H494.595L487.419 442.992C487.153 442.184 486.639 441.48 485.949 440.981C485.259 440.482 484.43 440.213 483.579 440.213H483.503C482.639 440.226 481.803 440.519 481.12 441.048C480.437 441.576 479.943 442.312 479.713 443.144L468.469 482.384L455.254 403.02C455.101 402.102 454.636 401.264 453.938 400.647C453.24 400.031 452.351 399.673 451.421 399.635C450.49 399.596 449.575 399.879 448.828 400.436C448.082 400.992 447.549 401.789 447.321 402.692L433.929 464.57H418.921C417.848 464.57 416.82 464.996 416.062 465.755C415.304 466.513 414.878 467.541 414.878 468.613C414.878 469.685 415.304 470.714 416.062 471.472C416.82 472.23 417.848 472.656 418.921 472.656H437.113C438.013 472.657 438.888 472.357 439.598 471.803C440.308 471.248 440.812 470.472 441.029 469.599L450.479 423.562L463.441 501.359C463.589 502.265 464.044 503.093 464.729 503.705C465.414 504.317 466.288 504.675 467.206 504.72H467.433C468.312 504.718 469.166 504.432 469.868 503.903C470.569 503.375 471.081 502.633 471.324 501.789L483.882 457.925L487.849 469.877C488.119 470.682 488.635 471.384 489.323 471.882C490.012 472.38 490.839 472.651 491.689 472.656H504.601C505.373 474.7 506.683 476.498 508.392 477.86C510.101 479.221 512.147 480.095 514.312 480.39C516.477 480.685 518.682 480.39 520.693 479.535C522.705 478.681 524.448 477.299 525.738 475.535C527.029 473.772 527.819 471.692 528.026 469.517C528.232 467.341 527.847 465.151 526.911 463.176C525.975 461.201 524.524 459.516 522.709 458.298C520.894 457.08 518.785 456.375 516.602 456.258H516.603Z" fill="#E6E6E6"/>
</g>
</svg>
